<svg xmlns="http://www.w3.org/2000/svg" width="760" height="380" viewBox="0 0 760 380" role="img" aria-label="fmail — secure terminal mail">
  <rect x="6" y="6" width="748" height="368" rx="14" fill="#0d1117" stroke="#30363d" stroke-width="1.5"/>
  <path d="M6 20 a14 14 0 0 1 14-14 h720 a14 14 0 0 1 14 14 v24 h-748 z" fill="#161b22"/>
  <line x1="6" y1="44" x2="754" y2="44" stroke="#30363d" stroke-width="1"/>
  <circle cx="28" cy="25" r="6" fill="#ff5f56"/>
  <circle cx="48" cy="25" r="6" fill="#ffbd2e"/>
  <circle cx="68" cy="25" r="6" fill="#27c93f"/>
  <text x="380" y="29" text-anchor="middle" font-family="ui-monospace,SFMono-Regular,Menlo,Consolas,'DejaVu Sans Mono',monospace" font-size="13" fill="#8b949e">fmail — secure terminal mail</text>
  <rect x="120" y="120" width="13" height="13" rx="1" fill="#3fb950"/><rect x="133" y="120" width="13" height="13" rx="1" fill="#3fb950"/><rect x="146" y="120" width="13" height="13" rx="1" fill="#3fb950"/><rect x="159" y="120" width="13" height="13" rx="1" fill="#3fb950"/><rect x="172" y="120" width="13" height="13" rx="1" fill="#3fb950"/><rect x="185" y="120" width="13" height="13" rx="1" fill="#3fb950"/><rect x="224" y="120" width="13" height="13" rx="1" fill="#3fb950"/><rect x="237" y="120" width="13" height="13" rx="1" fill="#3fb950"/><rect x="289" y="120" width="13" height="13" rx="1" fill="#3fb950"/><rect x="302" y="120" width="13" height="13" rx="1" fill="#3fb950"/><rect x="354" y="120" width="13" height="13" rx="1" fill="#3fb950"/><rect x="367" y="120" width="13" height="13" rx="1" fill="#3fb950"/><rect x="380" y="120" width="13" height="13" rx="1" fill="#3fb950"/><rect x="393" y="120" width="13" height="13" rx="1" fill="#3fb950"/><rect x="406" y="120" width="13" height="13" rx="1" fill="#3fb950"/><rect x="458" y="120" width="13" height="13" rx="1" fill="#3fb950"/><rect x="471" y="120" width="13" height="13" rx="1" fill="#3fb950"/><rect x="484" y="120" width="13" height="13" rx="1" fill="#3fb950"/><rect x="497" y="120" width="13" height="13" rx="1" fill="#3fb950"/><rect x="510" y="120" width="13" height="13" rx="1" fill="#3fb950"/><rect x="523" y="120" width="13" height="13" rx="1" fill="#3fb950"/><rect x="562" y="120" width="13" height="13" rx="1" fill="#3fb950"/><rect x="575" y="120" width="13" height="13" rx="1" fill="#3fb950"/><rect x="120" y="133" width="13" height="13" rx="1" fill="#3fb950"/><rect x="133" y="133" width="13" height="13" rx="1" fill="#3fb950"/><rect x="224" y="133" width="13" height="13" rx="1" fill="#3fb950"/><rect x="237" y="133" width="13" height="13" rx="1" fill="#3fb950"/><rect x="250" y="133" width="13" height="13" rx="1" fill="#3fb950"/><rect x="276" y="133" width="13" height="13" rx="1" fill="#3fb950"/><rect x="289" y="133" width="13" height="13" rx="1" fill="#3fb950"/><rect x="302" y="133" width="13" height="13" rx="1" fill="#3fb950"/><rect x="341" y="133" width="13" height="13" rx="1" fill="#3fb950"/><rect x="354" y="133" width="13" height="13" rx="1" fill="#3fb950"/><rect x="406" y="133" width="13" height="13" rx="1" fill="#3fb950"/><rect x="419" y="133" width="13" height="13" rx="1" fill="#3fb950"/><rect x="484" y="133" width="13" height="13" rx="1" fill="#3fb950"/><rect x="497" y="133" width="13" height="13" rx="1" fill="#3fb950"/><rect x="562" y="133" width="13" height="13" rx="1" fill="#3fb950"/><rect x="575" y="133" width="13" height="13" rx="1" fill="#3fb950"/><rect x="120" y="146" width="13" height="13" rx="1" fill="#3fb950"/><rect x="133" y="146" width="13" height="13" rx="1" fill="#3fb950"/><rect x="146" y="146" width="13" height="13" rx="1" fill="#3fb950"/><rect x="159" y="146" width="13" height="13" rx="1" fill="#3fb950"/><rect x="172" y="146" width="13" height="13" rx="1" fill="#3fb950"/><rect x="224" y="146" width="13" height="13" rx="1" fill="#3fb950"/><rect x="237" y="146" width="13" height="13" rx="1" fill="#3fb950"/><rect x="263" y="146" width="13" height="13" rx="1" fill="#3fb950"/><rect x="289" y="146" width="13" height="13" rx="1" fill="#3fb950"/><rect x="302" y="146" width="13" height="13" rx="1" fill="#3fb950"/><rect x="341" y="146" width="13" height="13" rx="1" fill="#3fb950"/><rect x="354" y="146" width="13" height="13" rx="1" fill="#3fb950"/><rect x="406" y="146" width="13" height="13" rx="1" fill="#3fb950"/><rect x="419" y="146" width="13" height="13" rx="1" fill="#3fb950"/><rect x="484" y="146" width="13" height="13" rx="1" fill="#3fb950"/><rect x="497" y="146" width="13" height="13" rx="1" fill="#3fb950"/><rect x="562" y="146" width="13" height="13" rx="1" fill="#3fb950"/><rect x="575" y="146" width="13" height="13" rx="1" fill="#3fb950"/><rect x="120" y="159" width="13" height="13" rx="1" fill="#3fb950"/><rect x="133" y="159" width="13" height="13" rx="1" fill="#3fb950"/><rect x="224" y="159" width="13" height="13" rx="1" fill="#3fb950"/><rect x="237" y="159" width="13" height="13" rx="1" fill="#3fb950"/><rect x="289" y="159" width="13" height="13" rx="1" fill="#3fb950"/><rect x="302" y="159" width="13" height="13" rx="1" fill="#3fb950"/><rect x="341" y="159" width="13" height="13" rx="1" fill="#3fb950"/><rect x="354" y="159" width="13" height="13" rx="1" fill="#3fb950"/><rect x="367" y="159" width="13" height="13" rx="1" fill="#3fb950"/><rect x="380" y="159" width="13" height="13" rx="1" fill="#3fb950"/><rect x="393" y="159" width="13" height="13" rx="1" fill="#3fb950"/><rect x="406" y="159" width="13" height="13" rx="1" fill="#3fb950"/><rect x="419" y="159" width="13" height="13" rx="1" fill="#3fb950"/><rect x="484" y="159" width="13" height="13" rx="1" fill="#3fb950"/><rect x="497" y="159" width="13" height="13" rx="1" fill="#3fb950"/><rect x="562" y="159" width="13" height="13" rx="1" fill="#3fb950"/><rect x="575" y="159" width="13" height="13" rx="1" fill="#3fb950"/><rect x="120" y="172" width="13" height="13" rx="1" fill="#3fb950"/><rect x="133" y="172" width="13" height="13" rx="1" fill="#3fb950"/><rect x="224" y="172" width="13" height="13" rx="1" fill="#3fb950"/><rect x="237" y="172" width="13" height="13" rx="1" fill="#3fb950"/><rect x="289" y="172" width="13" height="13" rx="1" fill="#3fb950"/><rect x="302" y="172" width="13" height="13" rx="1" fill="#3fb950"/><rect x="341" y="172" width="13" height="13" rx="1" fill="#3fb950"/><rect x="354" y="172" width="13" height="13" rx="1" fill="#3fb950"/><rect x="406" y="172" width="13" height="13" rx="1" fill="#3fb950"/><rect x="419" y="172" width="13" height="13" rx="1" fill="#3fb950"/><rect x="484" y="172" width="13" height="13" rx="1" fill="#3fb950"/><rect x="497" y="172" width="13" height="13" rx="1" fill="#3fb950"/><rect x="562" y="172" width="13" height="13" rx="1" fill="#3fb950"/><rect x="575" y="172" width="13" height="13" rx="1" fill="#3fb950"/><rect x="120" y="185" width="13" height="13" rx="1" fill="#3fb950"/><rect x="133" y="185" width="13" height="13" rx="1" fill="#3fb950"/><rect x="224" y="185" width="13" height="13" rx="1" fill="#3fb950"/><rect x="237" y="185" width="13" height="13" rx="1" fill="#3fb950"/><rect x="289" y="185" width="13" height="13" rx="1" fill="#3fb950"/><rect x="302" y="185" width="13" height="13" rx="1" fill="#3fb950"/><rect x="341" y="185" width="13" height="13" rx="1" fill="#3fb950"/><rect x="354" y="185" width="13" height="13" rx="1" fill="#3fb950"/><rect x="406" y="185" width="13" height="13" rx="1" fill="#3fb950"/><rect x="419" y="185" width="13" height="13" rx="1" fill="#3fb950"/><rect x="458" y="185" width="13" height="13" rx="1" fill="#3fb950"/><rect x="471" y="185" width="13" height="13" rx="1" fill="#3fb950"/><rect x="484" y="185" width="13" height="13" rx="1" fill="#3fb950"/><rect x="497" y="185" width="13" height="13" rx="1" fill="#3fb950"/><rect x="510" y="185" width="13" height="13" rx="1" fill="#3fb950"/><rect x="523" y="185" width="13" height="13" rx="1" fill="#3fb950"/><rect x="562" y="185" width="13" height="13" rx="1" fill="#3fb950"/><rect x="575" y="185" width="13" height="13" rx="1" fill="#3fb950"/><rect x="588" y="185" width="13" height="13" rx="1" fill="#3fb950"/><rect x="601" y="185" width="13" height="13" rx="1" fill="#3fb950"/><rect x="614" y="185" width="13" height="13" rx="1" fill="#3fb950"/><rect x="627" y="185" width="13" height="13" rx="1" fill="#3fb950"/>
  <text x="380" y="232" text-anchor="middle" font-family="ui-monospace,SFMono-Regular,Menlo,Consolas,'DejaVu Sans Mono',monospace" font-size="17" fill="#56d364">&#9993;  secure terminal mail · end-to-end encrypted</text>
  <text x="380" y="258" text-anchor="middle" font-family="ui-monospace,SFMono-Regular,Menlo,Consolas,'DejaVu Sans Mono',monospace" font-size="12.5" fill="#8b949e">v0.9.0-beta   ·   Linux &amp; macOS   ·   stdlib + gpg   ·   GPLv3</text>
  <text x="380" y="346" text-anchor="middle" font-family="ui-monospace,SFMono-Regular,Menlo,Consolas,'DejaVu Sans Mono',monospace" font-size="12.5"><tspan fill="#3fb950">$ </tspan><tspan fill="#c9d1d9">curl -fsSL https://survivologie.org/fmail/install.sh | bash</tspan></text>
</svg>
